<svg width="35" height="31" viewBox="0 0 35 31" fill="none" xmlns="http://www.w3.org/2000/svg">
<path fill-rule="evenodd" clip-rule="evenodd" d="M19.617 29.7742L19.7626 29.9508C20.3934 30.6267 21.3861 30.6787 22.0726 30.1068L22.2374 29.9508L34.4874 16.8258L34.5599 16.7434L34.6564 16.6162L34.7818 16.4076L34.8754 16.1963L34.9373 15.9987L34.9879 15.7214L35 15.5L34.9951 15.3589L34.9646 15.1236L34.913 14.9147L34.8361 14.7065L34.7445 14.5237L34.6155 14.3273L34.4874 14.1742L22.2374 1.04917C21.554 0.316941 20.446 0.316941 19.7626 1.04917C19.1317 1.72508 19.0832 2.78864 19.617 3.52419L19.7626 3.70082L29.022 13.625L1.75 13.625C0.783502 13.625 6.10406e-07 14.4645 6.55671e-07 15.5C7.00935e-07 16.5355 0.783502 17.375 1.75 17.375L29.0255 17.375L19.7626 27.2992C19.1317 27.9751 19.0832 29.0386 19.617 29.7742L19.7626 29.9508L19.617 29.7742Z" fill="#AAAAAA"/>
</svg>
