<svg width="35" height="31" viewBox="0 0 35 31" fill="none" xmlns="http://www.w3.org/2000/svg">
<path fill-rule="evenodd" clip-rule="evenodd" d="M15.383 29.7742L15.2374 29.9508C14.6066 30.6267 13.6139 30.6787 12.9274 30.1068L12.7626 29.9508L0.512561 16.8258L0.440116 16.7434L0.343585 16.6162L0.218177 16.4076L0.124645 16.1963L0.0627282 15.9987L0.0120843 15.7214L-6.55671e-07 15.5L0.00487835 15.3589L0.0354226 15.1236L0.0870393 14.9147L0.163928 14.7065L0.255493 14.5237L0.384452 14.3273L0.512561 14.1742L12.7626 1.04917C13.446 0.316941 14.554 0.316941 15.2374 1.04917C15.8683 1.72508 15.9168 2.78864 15.383 3.52419L15.2374 3.70082L5.978 13.625L33.25 13.625C34.2165 13.625 35 14.4645 35 15.5C35 16.5355 34.2165 17.375 33.25 17.375L5.9745 17.375L15.2374 27.2992C15.8683 27.9751 15.9168 29.0386 15.383 29.7742L15.2374 29.9508L15.383 29.7742Z" fill="#AAAAAA"/>
</svg>
